<svg width="1956" height="300" viewBox="0 0 1956 300" fill="none" xmlns="http://www.w3.org/2000/svg">
<path d="M263.4 126C263.4 239.6 201.8 296.4 78.6 296.4C58.8667 296.4 32.7333 294 0.2 289.2L45 52.8C47.1333 42.1333 48.8667 33.7333 50.2 27.6C90.7333 24.6667 119.933 23.2 137.8 23.2C155.933 23.2 173.267 25.0666 189.8 28.8C206.333 32.5333 220.067 38.5333 231 46.8C252.6 63.0666 263.4 89.4667 263.4 126ZM181 111.2C181 71.4667 166.733 51.6 138.2 51.6H134.2C132.867 51.6 131.533 51.7333 130.2 52L89 266.8C90.0667 267.333 91.1333 267.6 92.2 267.6H95.4C105.267 267.6 115.267 264.533 125.4 258.4C135.8 252.267 145 242.933 153 230.4C171.667 201.333 181 161.6 181 111.2ZM445.878 224.4C452.545 228.933 455.878 236.267 455.878 246.4C455.878 256.267 453.345 264.4 448.278 270.8C443.211 277.2 436.545 282.533 428.278 286.8C411.211 295.6 393.478 300 375.078 300C356.678 300 342.011 298 331.078 294C320.411 290 311.478 284.267 304.278 276.8C290.145 262.667 283.078 242.667 283.078 216.8C283.078 176.533 294.011 144.133 315.878 119.6C339.345 93.2 371.478 80 412.278 80C437.611 80 456.545 85.3333 469.078 96C478.411 104 483.078 114.533 483.078 127.6C483.078 174.533 442.545 198 361.478 198C360.411 204.933 359.878 211.333 359.878 217.2C359.878 229.467 362.545 238 367.878 242.8C373.478 247.333 381.345 249.6 391.478 249.6C401.611 249.6 412.011 247.333 422.678 242.8C433.611 238 441.345 231.867 445.878 224.4ZM364.278 180.8C383.211 180.8 398.145 174.933 409.078 163.2C420.011 152 425.478 137.467 425.478 119.6C425.478 113.467 424.278 108.8 421.878 105.6C419.745 102.133 416.411 100.4 411.878 100.4C407.345 100.4 403.078 101.333 399.078 103.2C395.345 104.8 391.478 108.533 387.478 114.4C377.611 127.733 369.878 149.867 364.278 180.8ZM665.969 300C633.702 300 617.569 287.467 617.569 262.4C617.835 255.467 619.035 246.133 621.169 234.4L628.369 197.6C635.569 162.933 639.169 141.733 639.169 134C639.169 118.533 634.635 110.8 625.569 110.8C610.369 110.8 598.769 130.667 590.769 170.4L567.169 292L486.769 300L528.369 87.6L593.969 80L587.569 119.2C600.102 93.0667 625.569 80 663.969 80C682.635 80 695.835 84 703.569 92C711.569 99.7333 715.569 112.4 715.569 130C715.569 146.533 711.302 174.133 702.769 212.8C698.769 230.133 696.769 242.133 696.769 248.8C696.769 255.2 698.502 260.267 701.969 264C705.702 267.733 710.235 269.867 715.569 270.4C712.902 279.467 706.902 286.667 697.569 292C688.502 297.333 677.969 300 665.969 300ZM753.95 252C753.95 244.8 755.817 232.133 759.55 214L780.75 106H757.15L758.75 94C790.75 84.4 822.217 67.8667 853.15 44.4H872.35L862.75 88H893.95L890.35 106H859.55L839.15 214C835.683 230.533 833.95 241.6 833.95 247.2C833.95 260 839.55 267.733 850.75 270.4C848.083 279.467 841.95 286.667 832.35 292C822.75 297.333 811.15 300 797.55 300C783.95 300 773.283 295.733 765.55 287.2C757.817 278.667 753.95 266.933 753.95 252ZM988.081 270C979.815 290 962.481 300 936.081 300C922.481 300 911.415 295.333 902.881 286C895.681 277.733 892.081 269.467 892.081 261.2C892.081 239.6 897.015 207.733 906.881 165.6L921.681 88L1002.88 80L978.481 206.4C973.948 226.133 971.681 239.467 971.681 246.4C971.681 261.6 977.148 269.467 988.081 270ZM928.881 32.4C928.881 22 933.148 14 941.681 8.39998C950.481 2.79999 961.148 -7.62939e-06 973.681 -7.62939e-06C986.215 -7.62939e-06 996.215 2.79999 1003.68 8.39998C1011.41 14 1015.28 22 1015.28 32.4C1015.28 42.8 1011.01 50.6667 1002.48 56C994.215 61.3333 983.815 64 971.281 64C958.748 64 948.481 61.3333 940.481 56C932.748 50.6667 928.881 42.8 928.881 32.4Z" fill="white"/>
<path d="M1032.16 44C1039.89 28 1054.43 20 1075.76 20C1097.36 20 1113.09 26.2667 1122.96 38.8C1133.09 51.0667 1138.16 71.4667 1138.16 100V242.8L1235.36 28.4H1282.96L1158.56 292H1064.96L1052.96 100C1052.16 85.8667 1049.76 74 1045.76 64.4C1042.03 54.8 1037.49 48 1032.16 44ZM1363.08 270C1354.81 290 1337.48 300 1311.08 300C1297.48 300 1286.41 295.333 1277.88 286C1270.68 277.733 1267.08 269.467 1267.08 261.2C1267.08 239.6 1272.01 207.733 1281.88 165.6L1296.68 88L1377.88 80L1353.48 206.4C1348.95 226.133 1346.68 239.467 1346.68 246.4C1346.68 261.6 1352.15 269.467 1363.08 270ZM1303.88 32.4C1303.88 22 1308.15 14 1316.68 8.39998C1325.48 2.79999 1336.15 -7.62939e-06 1348.68 -7.62939e-06C1361.21 -7.62939e-06 1371.21 2.79999 1378.68 8.39998C1386.41 14 1390.28 22 1390.28 32.4C1390.28 42.8 1386.01 50.6667 1377.48 56C1369.21 61.3333 1358.81 64 1346.28 64C1333.75 64 1323.48 61.3333 1315.48 56C1307.75 50.6667 1303.88 42.8 1303.88 32.4ZM1559.16 224.4C1565.83 228.933 1569.16 236.267 1569.16 246.4C1569.16 256.267 1566.63 264.4 1561.56 270.8C1556.49 277.2 1549.83 282.533 1541.56 286.8C1524.49 295.6 1506.76 300 1488.36 300C1469.96 300 1455.29 298 1444.36 294C1433.69 290 1424.76 284.267 1417.56 276.8C1403.43 262.667 1396.36 242.667 1396.36 216.8C1396.36 176.533 1407.29 144.133 1429.16 119.6C1452.63 93.2 1484.76 80 1525.56 80C1550.89 80 1569.83 85.3333 1582.36 96C1591.69 104 1596.36 114.533 1596.36 127.6C1596.36 174.533 1555.83 198 1474.76 198C1473.69 204.933 1473.16 211.333 1473.16 217.2C1473.16 229.467 1475.83 238 1481.16 242.8C1486.76 247.333 1494.63 249.6 1504.76 249.6C1514.89 249.6 1525.29 247.333 1535.96 242.8C1546.89 238 1554.63 231.867 1559.16 224.4ZM1477.56 180.8C1496.49 180.8 1511.43 174.933 1522.36 163.2C1533.29 152 1538.76 137.467 1538.76 119.6C1538.76 113.467 1537.56 108.8 1535.16 105.6C1533.03 102.133 1529.69 100.4 1525.16 100.4C1520.63 100.4 1516.36 101.333 1512.36 103.2C1508.63 104.8 1504.76 108.533 1500.76 114.4C1490.89 127.733 1483.16 149.867 1477.56 180.8ZM1908.45 225.2C1890.85 249.467 1873.52 268 1856.45 280.8C1839.65 293.6 1822.45 300 1804.85 300C1787.52 300 1775.78 298.267 1769.65 294.8V206.8C1754.45 247.333 1733.25 275.467 1706.05 291.2C1696.18 297.067 1686.58 300 1677.25 300C1659.38 300 1646.58 298.267 1638.85 294.8C1636.98 233.733 1635.25 194.8 1633.65 178C1632.05 160.933 1630.58 147.2 1629.25 136.8C1626.58 116 1620.72 101.333 1611.65 92.8C1623.12 84.2667 1636.85 80 1652.85 80C1683.78 80 1701.38 99.2 1705.65 137.6C1706.72 146.667 1707.25 156 1707.25 165.6C1707.25 180 1705.65 212.267 1702.45 262.4C1708.85 259.467 1715.38 252.8 1722.05 242.4C1728.98 231.733 1735.25 219.2 1740.85 204.8C1753.38 171.467 1759.65 140.4 1759.65 111.6C1759.65 107.067 1758.98 102.4 1757.65 97.6C1756.58 92.8 1755.38 89.7333 1754.05 88.4C1763.38 82.8 1775.12 80 1789.25 80C1803.65 80 1814.18 84.9333 1820.85 94.8C1827.78 104.4 1832.18 118.133 1834.05 136C1836.18 158.667 1837.25 176.8 1837.25 190.4C1837.25 209.333 1836.32 232.8 1834.45 260.8C1847.78 251.2 1859.92 230.667 1870.85 199.2C1881.78 167.733 1887.25 140.8 1887.25 118.4C1887.25 108.533 1886.45 100.667 1884.85 94.8C1893.65 84.9333 1905.65 80 1920.85 80C1930.18 80 1938.18 82.5333 1944.85 87.6C1951.78 92.6667 1955.25 100 1955.25 109.6C1955.25 118.933 1953.78 128.667 1950.85 138.8C1948.18 148.933 1944.58 159.2 1940.05 169.6C1931.25 190.4 1920.72 208.933 1908.45 225.2Z" fill="#EDC181"/>
</svg>
