<svg width="138" height="136" viewBox="0 0 138 136" fill="none" xmlns="http://www.w3.org/2000/svg">
<g clip-path="url(#clip0_1_3)">
<path d="M136.317 78.7377C134.454 80.0849 132.261 81.8576 130.668 82.9212C128.746 84.1975 126.823 85.5449 124.99 86.9985C123.127 88.452 121.324 90.012 119.551 91.6429C117.719 93.3801 115.736 94.5855 113.783 95.9327C112.701 96.6772 111.409 96.7482 110.417 95.72C109.576 94.8337 109.065 92.8837 109.726 91.6429C111.108 89.0193 112.521 86.573 114.504 84.5521C116.367 82.6731 118.44 81.0068 120.453 79.4468C122.436 77.8869 124.479 76.4687 126.552 75.1215C128.806 73.6679 131.059 72.746 133.493 71.966C134.965 71.5052 136.528 72.037 137.279 73.8451C137.91 75.4405 137.639 77.745 136.317 78.7377Z" fill="#EDC181"/>
<path d="M110.809 68.1415C110.538 68.567 110.268 68.957 110.027 69.3824C109.877 69.6306 109.757 69.8433 109.607 70.0914C109.246 70.7296 109.637 69.9497 109.727 69.9142C109.667 69.9142 109.426 70.9423 109.366 71.0841C109.126 71.7578 108.675 72.5023 108.285 73.2114C107.383 74.8777 106.602 76.6149 105.4 78.2812C103.988 80.2312 102.516 82.1812 100.563 83.9184C99.8417 84.5566 99.1206 85.2656 98.3093 85.8683C97.7685 86.2583 97.0774 86.7193 96.5066 87.0029C96.146 87.1802 95.6353 87.5346 96.2662 87.0383C97.3178 86.2228 95.2747 87.641 95.1245 87.7474C94.854 87.8892 94.6136 88.0665 94.3432 88.2083C93.5019 88.6692 92.5706 88.9882 91.6692 89.2719C88.3641 90.3709 85.69 88.031 87.8233 85.2302C88.304 84.592 88.7848 83.9184 89.3256 83.3157C89.4758 83.1384 89.6561 82.9612 89.8063 82.7839C90.9781 81.5076 89.0551 83.9893 89.2054 83.9538C89.3556 83.8829 89.8664 82.6066 89.9565 82.4648C90.257 81.9685 90.7377 81.4366 91.1283 80.9757C91.4588 80.5857 91.8194 80.1958 92.1499 79.8058C92.6607 79.2031 91.2485 81.0111 91.8494 80.1603C91.9696 79.983 92.1199 79.8057 92.2401 79.6285C92.6307 79.0967 93.0813 78.6003 93.5019 78.0685C93.6221 77.9267 94.3433 77.005 93.6222 77.9268C92.901 78.8486 93.9226 77.5013 94.1029 77.2531C94.6437 76.5086 95.2146 75.7641 95.8455 75.0195C97.1075 73.495 98.3394 72.0059 99.6914 70.5169C100.503 69.6305 101.675 68.5315 102.816 67.8578C103.297 67.5742 102.095 68.496 102.786 67.8933C103.177 67.5388 103.597 67.1843 103.988 66.8298C104.439 66.4398 104.92 66.0497 105.37 65.6597C108.856 62.9298 112.882 64.9862 110.809 68.1415Z" fill="#EDC181"/>
<path d="M87.0722 107.702C85.8703 109.546 83.8873 111.318 82.1746 112.914C80.7024 114.261 79.2601 115.679 77.7278 117.026C75.895 118.657 74.1222 120.146 71.989 121.458C71.3279 121.848 70.7571 122.167 70.036 122.451C69.3149 122.805 68.5637 122.983 67.7524 123.018C68.5937 122.805 68.6839 122.805 68.0529 123.018C66.6708 123.621 65.3789 123.94 63.9667 123.727C62.224 123.479 61.4428 122.096 61.4428 120.678C61.4428 119.792 61.9235 119.047 62.4343 118.196C62.6446 117.877 62.855 117.381 63.1254 117.133C62.4944 118.87 62.4344 118.87 62.9451 117.168C63.1855 116.778 63.3958 116.353 63.6361 115.963C63.9666 115.502 64.3873 115.076 64.7779 114.615C66.4004 112.807 68.1431 111.354 70.036 109.758C71.5984 108.446 73.2509 107.241 74.9335 106.071C77.1569 104.511 79.7108 102.845 82.415 102.171C86.6214 101.143 89.2054 104.476 87.0722 107.702Z" fill="#EDC181"/>
<path d="M77.7869 76.3276C76.9757 77.7812 76.2846 78.9157 75.0527 80.192C74.2415 81.0075 73.4001 81.8229 72.5588 82.6028C70.8162 84.1983 68.9834 85.6873 67.1205 87.1764C65.2576 88.6654 63.4248 90.1545 61.4718 91.5372C60.961 91.8918 60.3301 92.459 59.7292 92.6363C59.1282 92.7781 60.3 92.1754 59.7892 92.5299C59.0381 93.0617 58.347 93.629 57.5358 94.0899C56.4842 94.6571 55.4626 95.1889 54.441 95.8271C51.7369 97.4579 48.9426 95.2598 49.844 92.9199C50.2045 91.9981 50.5651 91.0763 51.0158 90.19C51.6468 88.9491 52.5482 87.8501 53.3594 86.6801C54.8016 84.5529 57.2954 82.7802 59.4287 81.1139C61.2615 79.6957 63.1244 78.2776 64.9872 76.8949C65.9487 76.1858 66.8802 75.4767 67.8116 74.7321C68.9533 73.8103 70.1552 73.0658 71.3871 72.2858C73.0096 71.2577 75.263 71.3995 76.555 72.215C77.7869 72.9949 78.6282 74.8031 77.7869 76.3276Z" fill="#EDC181"/>
<path d="M107.083 39.0362C106.692 39.7099 106.302 40.4189 105.971 41.0925C106.332 40.0643 106.662 39.0007 107.023 37.9726C107.413 40.9507 102.966 46.5169 99.9919 50.1686C98.8802 51.5513 97.7385 52.8631 96.4465 54.2104C95.3348 55.3803 94.193 56.6212 92.9912 57.7557C90.7978 59.7766 88.2739 61.1592 85.8101 62.0101C82.2647 63.2155 79.921 62.0101 79.8609 59.6702C79.7708 56.2666 84.2477 51.9059 87.4626 48.0769C90.2269 44.7797 93.2014 40.4189 97.2276 37.7953C96.0558 38.8589 94.8841 39.887 93.7123 40.9507C94.3132 40.277 94.854 39.568 95.3948 38.8944C97.8286 35.7745 102.366 33.5409 105.13 33.5764C108.134 33.5764 108.795 35.9163 107.083 39.0362Z" fill="#EDC181"/>
<path d="M48.7031 113.243C48.1623 113.811 47.6816 114.413 47.1408 114.981C46.5999 115.548 45.9389 116.115 45.338 116.682C45.1877 116.824 44.2864 117.675 44.9774 117.001C45.7586 116.257 44.5868 117.391 44.4366 117.533C44.1662 117.817 43.8957 118.065 43.6253 118.349C43.0244 118.951 42.4235 119.59 41.8226 120.228C40.4105 121.788 39.1786 123.241 37.4058 124.624C35.543 126.113 33.8003 127.389 31.5468 128.098C29.1131 128.843 27.4605 128.311 26.6793 126.928C25.0569 124.021 28.6323 119.235 31.9975 115.973C35.2725 112.818 38.6076 109.769 42.8141 107.606C45.368 106.294 48.4328 105.975 49.6947 107.358C50.9867 108.705 50.7162 111.045 48.7031 113.243Z" fill="#EDC181"/>
<path d="M60.3586 24.9696C61.8008 23.3387 63.6336 21.4596 64.7453 20.0415C66.0974 18.3397 67.5096 16.6734 69.042 15.078C70.5743 13.4826 72.1968 11.9226 73.9094 10.4336C75.7122 8.87361 77.0042 7.10088 78.4164 5.39911C79.1976 4.44186 79.3177 3.23643 78.2661 2.17282C77.3647 1.25102 75.4117 0.542038 74.1498 1.03838C71.4456 2.06654 68.9217 3.13014 66.8185 4.79646C64.8655 6.35642 63.1228 8.12911 61.4703 9.90179C59.8478 11.6035 58.3456 13.4116 56.9334 15.2552C55.401 17.2406 54.4094 19.2615 53.5682 21.5306C53.0574 22.8778 53.5682 24.4377 55.3709 25.3595C56.9934 26.104 59.337 26.1395 60.3586 24.9696Z" fill="#EDC181"/>
<path d="M52.067 58.2149C52.5177 58.0022 52.9384 57.8249 53.3891 57.6476C53.6294 57.5413 53.8699 57.4703 54.1103 57.364C54.7713 57.1512 53.96 57.364 53.93 57.4349C53.96 57.364 54.9815 57.3994 55.1017 57.3994C55.7928 57.3285 56.574 57.0095 57.3251 56.7613C59.0978 56.194 60.9006 55.8041 62.6733 54.8823C64.7766 53.7832 66.8498 52.6131 68.8328 50.805C69.5539 50.1314 70.3352 49.4932 71.0262 48.7133C71.4769 48.2169 72.0177 47.4724 72.3783 46.8697C72.5886 46.4797 73.0092 45.9479 72.4383 46.586C71.5069 47.5787 73.1595 45.5934 73.2797 45.4161C73.46 45.1325 73.6702 44.8843 73.8505 44.6006C74.3913 43.7143 74.8421 42.6862 75.2327 41.6935C76.735 38.0063 74.7519 34 71.7473 35.6664C71.0563 36.0564 70.3652 36.4109 69.6741 36.8718C69.4938 37.0136 69.2835 37.1554 69.1032 37.2972C67.6911 38.3254 70.3952 36.8009 70.3051 36.9428C70.245 37.12 68.8929 37.2973 68.7427 37.3682C68.2319 37.5809 67.631 37.9708 67.1503 38.3254C66.7296 38.609 66.309 38.8926 65.8583 39.1762C65.1973 39.6017 67.1502 38.4672 66.2488 38.9281C66.0685 39.0345 65.8883 39.1409 65.6779 39.2472C65.1071 39.5663 64.5662 39.9208 63.9954 40.2753C63.8451 40.3817 62.8536 40.9844 63.8452 40.3816C64.8367 39.7789 63.3945 40.6299 63.1241 40.7717C62.3128 41.1971 61.5316 41.658 60.7203 42.1543C59.0678 43.1825 57.4453 44.2106 55.8228 45.3806C54.8613 46.0542 53.5994 47.1534 52.8182 48.3233C52.4877 48.8197 53.5393 47.6497 52.8483 48.3233C52.4577 48.7133 52.037 49.0679 51.6464 49.4579C51.1958 49.8833 50.7751 50.3087 50.3244 50.7696C47.1696 54.1377 48.7019 59.7394 52.067 58.2149Z" fill="#EDC181"/>
<path d="M96.3862 135.328C98.2791 134.655 100.412 133.13 102.245 131.818C103.868 130.684 105.46 129.585 107.083 128.415C109.036 126.961 110.838 125.578 112.671 123.699C113.212 123.132 113.663 122.6 114.174 121.891C114.714 121.218 115.135 120.473 115.435 119.587C114.985 120.438 114.955 120.544 115.345 119.941C116.307 118.63 117.028 117.318 117.388 115.687C117.839 113.666 117.028 112.319 115.856 111.823C115.135 111.503 114.384 111.752 113.543 112.035C113.212 112.142 112.761 112.213 112.431 112.425C114.023 112.354 114.053 112.283 112.521 112.213C112.13 112.319 111.74 112.425 111.319 112.532C110.838 112.709 110.328 113.028 109.847 113.312C107.864 114.446 106.031 115.864 104.108 117.389C102.516 118.665 100.983 120.048 99.4209 121.466C97.3777 123.38 95.1544 125.579 93.6521 128.308C91.3385 132.457 93.0511 136.498 96.3862 135.328Z" fill="#EDC181"/>
<path d="M2.88269 122.6C4.32491 122.21 5.49672 121.855 6.93894 120.969C7.87037 120.366 8.80178 119.728 9.7332 119.09C11.6261 117.743 13.4589 116.254 15.2918 114.729C17.1246 113.204 18.9574 111.751 20.7602 110.085C21.2109 109.659 21.9019 109.163 22.2625 108.525C22.593 107.922 21.6916 108.986 22.1723 108.56C22.8634 107.922 23.5544 107.355 24.2155 106.646C25.0267 105.688 25.838 104.731 26.6793 103.845C28.9327 101.469 28.2116 97.605 26.0182 97.7468C25.177 97.8177 24.3056 97.8886 23.4342 98.0659C22.2324 98.314 21.0306 98.9167 19.7987 99.3776C17.6053 100.229 15.2917 102.32 13.2186 104.058C11.4158 105.582 9.64308 107.107 7.87036 108.666C6.96898 109.482 6.06758 110.262 5.13615 110.971C3.9944 111.893 2.9729 112.956 1.92129 114.055C0.539159 115.474 -0.151918 118.026 0.0283596 119.728C0.208636 121.43 1.35034 122.99 2.88269 122.6Z" fill="#EDC181"/>
<path d="M24.9967 87.068C25.4774 86.8907 25.9882 86.678 26.4689 86.5362C25.7178 86.6071 24.9366 86.6781 24.1854 86.7844C26.4689 87.7771 30.3148 85.0472 32.8387 83.2391C33.7701 82.5655 34.7016 81.8209 35.603 80.97C36.3842 80.2255 37.2255 79.5164 37.9767 78.6655C39.3287 77.1765 40.1699 75.2265 40.6206 73.2411C41.2516 70.3694 40.1099 68.0294 38.3372 67.4267C35.7532 66.5758 32.8086 69.6249 30.1946 71.6103C27.9111 73.3475 24.8765 75.0493 23.224 78.0274C23.9151 77.212 24.6361 76.3964 25.3272 75.6165C24.8464 76.0064 24.3957 76.3256 23.915 76.6446C21.7517 78.1337 20.4297 81.6437 20.7001 84.1254C20.9405 86.7844 22.7733 87.8834 24.9967 87.068Z" fill="#EDC181"/>
<path d="M26.439 57.1245C27.0399 56.5218 27.671 55.99 28.3019 55.3873C28.9329 54.7491 29.5338 54.0047 30.1648 53.3311C30.315 53.1538 31.2464 52.1256 30.4952 52.941C29.654 53.8273 30.9159 52.5156 31.0661 52.3384C31.3666 52.0193 31.637 51.7002 31.9375 51.4165C32.5985 50.7429 33.2595 50.0693 33.9505 49.3956C35.6031 47.8002 37.1355 46.453 38.7279 44.4322C40.4105 42.2695 41.9428 40.2486 43.0545 37.5187C44.2864 34.576 44.2263 32.4134 43.2648 31.2789C41.2217 28.9035 36.3242 32.768 32.7788 36.5969C29.3235 40.3196 25.9583 44.0776 23.1039 49.0766C21.3612 52.1256 20.3697 55.9191 21.211 57.6918C22.0823 59.3935 24.1254 59.3581 26.439 57.1245Z" fill="#EDC181"/>
</g>
<defs>
<clipPath id="clip0_1_3">
<rect width="138" height="136" fill="white"/>
</clipPath>
</defs>
</svg>
