<svg width="2500" height="367" viewBox="0 0 2500 367" fill="none" xmlns="http://www.w3.org/2000/svg">
<g clip-path="url(#clip0_1_2)">
<path d="M49.4273 44.6449L0.42688 320.444H182.026C275.939 320.444 348.176 260.986 348.176 178.908C348.176 119.06 306.901 44.6449 166.556 44.6449H49.4273ZM575.941 236.332C592.459 177.696 552.725 133.606 479.46 133.606C408.784 133.606 352.532 178.497 352.532 234.709C352.532 288.887 397.937 324.081 469.146 324.081C493.41 324.081 521.783 319.232 550.67 310.747L563.059 265.034C524.886 277.156 498.054 283.648 476.378 283.648C442.849 283.648 419.119 266.246 422.735 236.332H575.941ZM1246.41 139.687C1220.32 135.445 1193.92 133.418 1167.48 133.626C1041.09 133.626 997.714 191.852 997.714 245.249C997.714 291.352 1032.29 324.101 1079.77 324.101C1104.02 324.101 1124.66 317.63 1147.37 303.474L1144.28 320.465H1213.93L1246.41 139.687Z" fill="white"/>
<path d="M1945.9 176.237C1945.9 176.237 2030.96 -1.90735e-06 2274.81 -1.90735e-06C2518.68 -1.90735e-06 2499.2 146.508 2499.2 146.508C2499.2 146.508 2413.14 106.548 2333.2 112.691C2333.2 112.691 2254.3 115.752 2195.89 148.563C2195.91 148.563 2060.66 221.314 1945.9 176.237Z" fill="#808080"/>
<path d="M1963.32 312.514C1963.32 312.514 2046.32 407.803 2282 346.331C2282 346.331 2416.22 313.541 2482.81 200.83C2482.81 200.83 2389.57 145.502 2276.86 206.973C2276.86 206.973 2245.12 226.45 2175.41 279.724C2175.41 279.724 2110.86 329.936 1963.32 312.514Z" fill="white"/>
<path d="M115.994 90.7484H152.113C229.507 90.7484 270.782 129.558 270.782 178.086C270.782 225.813 236.718 274.341 153.654 274.341H83.4915L115.994 90.7484ZM429.412 204.795C439.726 181.743 455.217 171.224 477.899 171.224C501.629 171.224 515.558 184.969 511.449 204.795H429.412Z" fill="black"/>
<path d="M670.942 157.479C699.315 140.488 722.531 133.606 750.904 133.606C805.082 133.606 819.525 169.19 812.828 206.788L792.714 320.424H723.065L742.666 210.835C745.747 193.043 740.591 174.039 722.018 174.039C706.033 174.039 686.947 182.524 663.217 202.33L642.055 320.424H572.407L605.423 136.831H675.072L670.942 157.479ZM949.433 136.852H1001.02L991.736 177.285H940.126L926.71 236.723C922.067 257.35 926.196 275.142 945.797 275.142C955.083 275.142 965.397 272.307 986.045 264.233V312.35C963.342 320.855 946.824 324.081 926.196 324.081C868.423 324.081 846.214 285.661 854.987 247.242L871.505 177.285H824.025L832.798 136.852H880.278L888.516 98.0214H959.213L949.433 136.852Z" fill="white"/>
<path d="M1154.06 267.068C1138.08 277.587 1120.02 283.237 1104.02 283.237C1082.87 283.237 1069.97 270.314 1069.97 248.063C1069.97 225.423 1082.87 172.847 1169.56 179.73L1154.06 267.068Z" fill="black"/>
<path d="M1307.58 322.396H1237.91L1287.44 46.6172H1357.11L1307.58 322.396Z" fill="white"/>
<path d="M1409.69 190.455H1538.51L1542.62 160.274H1415.83L1432.9 76.6133H1578.28L1582.41 46.4323H1391.75L1335.52 317.322H1574.17L1579.66 285.086H1390.38L1409.69 190.455ZM1641.38 46.4323H1889.63L1668.8 285.086H1851.23L1845.74 317.322H1590.63L1812.48 76.6133H1635.89L1641.38 46.4323Z" fill="#808080"/>
</g>
<defs>
<clipPath id="clip0_1_2">
<rect width="2500" height="367" fill="white"/>
</clipPath>
</defs>
</svg>
